<svg xmlns="http://www.w3.org/2000/svg" xmlns:xlink="http://www.w3.org/1999/xlink" viewBox="0,0,256,256" width="64px" height="64px" fill-rule="nonzero"><g fill="#ffffff" fill-rule="nonzero" stroke="none" stroke-width="1" stroke-linecap="butt" stroke-linejoin="miter" stroke-miterlimit="10" stroke-dasharray="" stroke-dashoffset="0" font-family="none" font-weight="none" font-size="none" text-anchor="none" style="mix-blend-mode: normal"><g transform="scale(4,4)"><path d="M32,3c-15.991,0 -29,13.01 -29,29c0,15.99 13.009,29 29,29c15.991,0 29,-13.01 29,-29c0,-15.99 -13.009,-29 -29,-29zM32,5c14.888,0 27,12.112 27,27c0,14.888 -12.112,27 -27,27c-14.888,0 -27,-12.112 -27,-27c0,-14.888 12.112,-27 27,-27zM32,8c-13.233,0 -24,10.767 -24,24c0,2.113 0.27441,4.20947 0.81641,6.23047c0.119,0.447 0.52384,0.74023 0.96484,0.74023c0.086,0 0.17472,-0.0102 0.26172,-0.0332c0.534,-0.143 0.84808,-0.69161 0.70508,-1.22461c-0.497,-1.853 -0.74805,-3.77489 -0.74805,-5.71289c0,-12.131 9.869,-22 22,-22c5.706,0 11.11547,2.17405 15.23047,6.12305c0.398,0.381 1.03206,0.37166 1.41406,-0.02734c0.383,-0.398 0.3687,-1.03106 -0.0293,-1.41406c-4.49,-4.308 -10.39023,-6.68164 -16.61523,-6.68164zM39.19531,18.77344c-1.99762,0.065 -3.96886,0.89134 -5.44336,2.46484c-1.356,1.448 -2.11133,3.3578 -2.11133,5.3418v0.61914c-4.91,-0.542 -9.41302,-2.98559 -12.54102,-6.80859c-0.307,-0.376 -0.86228,-0.433 -1.23828,-0.125c-0.081,0.066 -0.14817,0.14438 -0.20117,0.23438c-1.44,2.481 -1.40516,5.552 0.08984,8c-0.451,-0.182 -0.96448,0.03533 -1.14648,0.48633c-0.04,0.1 -0.06245,0.20745 -0.06445,0.31445v0.09961c0.016,2.388 1.121,4.63638 3,6.10938c-0.438,0.16 -0.67306,0.63408 -0.53906,1.08008c0.772,2.37 2.63,4.228 5,5c-2.391,1.3 -5.12708,1.82677 -7.83008,1.50977c-0.483,-0.053 -0.9177,0.2963 -0.9707,0.7793c-0.036,0.329 0.11463,0.65003 0.39063,0.83203c3.308,2.139 7.16061,3.28006 11.09961,3.28906c5.847,0.137 11.45355,-2.3247 15.31055,-6.7207c3.374,-3.838 5.25578,-8.75914 5.30078,-13.86914v-0.4707c1.286,-0.988 2.39883,-2.1803 3.29883,-3.5293c0.265,-0.408 0.15019,-0.9528 -0.25781,-1.2168c-0.245,-0.159 -0.55327,-0.18722 -0.82227,-0.07422h-0.0293l-0.68945,0.28125c0.407,-0.619 0.72245,-1.292 0.93945,-2c0.129,-0.469 -0.14819,-0.95303 -0.61719,-1.08203c-0.224,-0.061 -0.46011,-0.03197 -0.66211,0.08203c-1.141,0.678 -2.37987,1.17747 -3.67188,1.48047c-1.574,-1.4745 -3.59613,-2.17242 -5.59375,-2.10742zM39.6543,20.59766c1.56881,0.05672 3.07855,0.72183 4.18555,1.89258c0.207,0.22 0.51355,0.31777 0.81055,0.25977c0.713,-0.141 1.41461,-0.33508 2.09961,-0.58008c-0.4,0.438 -0.86014,0.81414 -1.36914,1.11914c-0.396,0.282 -0.48903,0.83252 -0.20703,1.22852c0.188,0.264 0.50517,0.40328 0.82617,0.36328c0.42,-0.053 0.837,-0.12117 1.25,-0.20117c-0.434,0.404 -0.89586,0.78009 -1.38086,1.12109c-0.238,0.174 -0.37237,0.455 -0.35937,0.75v0.85938c-0.009,10.405 -8.45242,18.83127 -18.85742,18.82227c-2.414,-0.002 -4.80497,-0.46805 -7.04297,-1.37305c2.644,-0.323 5.151,-1.36 7.25,-3c0.381,-0.302 0.44653,-0.85533 0.14453,-1.23633c-0.163,-0.207 -0.41083,-0.32898 -0.67383,-0.33398c-2.085,-0.036 -4.00508,-1.14269 -5.08008,-2.92969c0.659,-0.008 1.31322,-0.09753 1.94922,-0.26953c0.468,-0.13 0.74328,-0.61599 0.61328,-1.08398c-0.089,-0.318 -0.34787,-0.559 -0.67187,-0.625c-2.343,-0.481 -4.18517,-2.29486 -4.70117,-4.63086c0.674,0.21 1.37408,0.32761 2.08008,0.34961c0.393,0.021 0.75033,-0.23137 0.86133,-0.60937c0.12,-0.374 -0.02456,-0.782 -0.35156,-1c-2.261,-1.508 -3.24044,-4.33592 -2.39844,-6.91992c3.648,3.901 8.666,6.23477 14,6.50977c0.276,0.018 0.54275,-0.09755 0.71875,-0.31055c0.175,-0.211 0.24169,-0.49177 0.17969,-0.75977c-0.75,-3.262 1.28683,-6.51467 4.54883,-7.26367c0.5235,-0.12025 1.05323,-0.16734 1.57617,-0.14844zM54.04102,24.10352c-0.1293,-0.01253 -0.26278,0.00002 -0.39453,0.04102c-0.527,0.165 -0.8203,0.72691 -0.6543,1.25391c0.668,2.129 1.00781,4.34956 1.00781,6.60156c0,2.687 -0.47983,5.31178 -1.42383,7.80078c-0.195,0.517 0.06503,1.09406 0.58203,1.28906c0.116,0.044 0.23552,0.06445 0.35352,0.06445c0.404,0 0.78455,-0.24553 0.93555,-0.64453c1.031,-2.717 1.55273,-5.57977 1.55273,-8.50977c0,-2.455 -0.37061,-4.87717 -1.09961,-7.20117c-0.1245,-0.3945 -0.47149,-0.65772 -0.85937,-0.69531zM51.16992,42.00195c-0.38691,-0.04903 -0.78248,0.13369 -0.99023,0.49219c-0.276,0.478 -0.11277,1.08923 0.36523,1.36523l1.73047,1.00195c0.158,0.092 0.33,0.13477 0.5,0.13477c0.346,0 0.68219,-0.17805 0.86719,-0.49805c0.276,-0.478 0.11277,-1.08923 -0.36523,-1.36523l-1.73047,-1.00195c-0.11975,-0.07 -0.24798,-0.11256 -0.37695,-0.12891zM48.39844,45.58789c-0.25538,0.01525 -0.504,0.12944 -0.6875,0.33594c-0.367,0.414 -0.32902,1.04611 0.08398,1.41211l1.49609,1.32617c0.19,0.169 0.42611,0.25195 0.66211,0.25195c0.276,0 0.551,-0.11294 0.75,-0.33594c0.367,-0.414 0.32902,-1.04611 -0.08398,-1.41211l-1.49609,-1.32617c-0.207,-0.1835 -0.46923,-0.2672 -0.72461,-0.25195zM16.64648,48.17773c-0.2555,0.01463 -0.50595,0.12749 -0.68945,0.33398c-0.367,0.412 -0.33192,1.04316 0.08008,1.41016c4.397,3.92 10.06689,6.07813 15.96289,6.07813c0.629,0 1.2703,-0.02522 1.9043,-0.07422c0.55,-0.043 0.96097,-0.52422 0.91797,-1.07422c-0.043,-0.551 -0.52722,-0.96592 -1.07422,-0.91992c-6.031,0.466 -11.91891,-1.52595 -16.37891,-5.50195c-0.2065,-0.184 -0.46716,-0.26658 -0.72266,-0.25195zM45.3457,48.60352c-0.25337,-0.03587 -0.52119,0.02445 -0.74219,0.18945c-0.441,0.332 -0.52927,0.95939 -0.19727,1.40039l1.20117,1.59961c0.196,0.261 0.49678,0.39844 0.80078,0.39844c0.209,0 0.41961,-0.06617 0.59961,-0.20117c0.441,-0.332 0.52927,-0.95744 0.19727,-1.39844l-1.20117,-1.59961c-0.1655,-0.2205 -0.40483,-0.3528 -0.6582,-0.38867zM41.375,50.88672c-0.12987,0.00544 -0.26172,0.0367 -0.38672,0.0957c-0.499,0.236 -0.71161,0.83303 -0.47461,1.33203l0.85742,1.80664c0.171,0.36 0.5303,0.57031 0.9043,0.57031c0.143,0 0.28873,-0.0307 0.42773,-0.0957c0.499,-0.236 0.71161,-0.83303 0.47461,-1.33203l-0.85742,-1.80664c-0.177,-0.3735 -0.55569,-0.58662 -0.94531,-0.57031zM37.40039,52.37305c-0.12792,-0.02066 -0.26178,-0.01542 -0.39453,0.01758c-0.536,0.132 -0.86342,0.67198 -0.73242,1.20898l0.47461,1.94336c0.112,0.456 0.5207,0.76172 0.9707,0.76172c0.079,0 0.15828,-0.0093 0.23828,-0.0293c0.536,-0.132 0.86538,-0.67394 0.73438,-1.21094l-0.47656,-1.94141c-0.099,-0.402 -0.43069,-0.68803 -0.81445,-0.75z"></path></g></g></svg>